<?xml version="1.0" standalone="no"?>
<!DOCTYPE svg PUBLIC "-//W3C//DTD SVG 20010904//EN"
 "http://www.w3.org/TR/2001/REC-SVG-20010904/DTD/svg10.dtd">
<svg version="1.0" xmlns="http://www.w3.org/2000/svg"
 width="315.000000pt" height="315.000000pt" viewBox="0 0 315.000000 315.000000"
 preserveAspectRatio="xMidYMid meet">
<metadata>
Created by potrace 1.11, written by Peter Selinger 2001-2013
</metadata>
<g transform="translate(0.000000,315.000000) scale(0.100000,-0.100000)"
fill="#000000" stroke="none">
<path d="M1410 2991 c0 -71 4 -141 10 -156 9 -23 8 -24 -8 -16 -9 5 -65 32
-124 59 -59 28 -139 71 -177 96 -39 25 -72 42 -74 38 -2 -4 -3 -97 -2 -207 1
-159 5 -208 18 -237 9 -21 14 -38 11 -38 -2 0 -33 14 -67 31 -99 51 -161 103
-214 182 -14 20 -26 37 -27 37 -1 0 -1 -467 -1 -1037 2 -1012 2 -1039 22
-1095 39 -111 105 -198 200 -265 18 -13 34 -23 36 -23 3 0 66 -36 142 -80 76
-44 139 -80 141 -80 2 0 57 -31 123 -70 66 -38 125 -70 131 -70 5 0 10 -4 10
-10 0 -25 54 -1 266 121 126 72 249 142 274 156 138 77 216 150 264 245 57
114 56 85 53 1058 l-2 895 -27 51 c-46 88 -69 102 -463 289 -270 128 -451 218
-476 236 -15 10 -30 19 -33 19 -3 0 -6 -58 -6 -129z"/>
</g>
</svg>
